<?xml version="1.0" encoding="UTF-8"?>
<svg id="Layer_1" data-name="Layer 1" xmlns="http://www.w3.org/2000/svg" viewBox="0 0 544.76 83.44">
  <defs>
    <style>
      .cls-1 {
        fill: #231f20;
      }
    </style>
  </defs>
  <path class="cls-1" d="M20.7,22.56c-.38-1.57-.29-3.23-.08-4.09.53-2.48,2.22-5.25,7.13-5.25,4.56,0,7.24,2.83,7.24,7.07v4.82h19.43v-5.47C54.41,2.7,39.14,0,28.13,0,14.29,0,2.99,4.59.92,17.31c-.57,3.49-.66,6.56.16,10.5,3.37,15.92,31.05,20.53,35.08,30.6.75,1.87.53,4.28.15,5.75-.64,2.62-2.4,5.26-7.61,5.26-4.87,0-7.78-2.83-7.78-7.09l-.03-7.49H0v5.95c0,17.41,13.67,22.65,28.31,22.65s25.63-4.8,27.51-17.83c.94-6.72.23-11.09-.08-12.75-3.29-16.34-32.82-21.19-35.04-30.3ZM273.97,22.75c-.35-1.54-.25-3.17-.07-4.03.56-2.49,2.23-5.21,7.06-5.21,4.5,0,7.13,2.8,7.13,7.01v4.76h19.2v-5.43c0-16.78-15.04-19.42-25.94-19.42-13.72,0-24.92,4.52-26.97,17.15-.54,3.44-.68,6.49.19,10.38,3.34,15.74,30.74,20.31,34.72,30.27.7,1.89.5,4.29.14,5.71-.6,2.59-2.34,5.2-7.51,5.2-4.85,0-7.76-2.79-7.76-6.99v-7.47h-20.67v5.94c0,17.21,13.48,22.41,28.01,22.41s25.4-4.75,27.24-17.64c.88-6.66.22-10.99-.14-12.63-3.22-16.15-32.43-21-34.64-30.02ZM450.81,65.18l-18.34-62.7h-28.9v77.07h19.12l-1.11-64.71,19.7,64.71h27.72V2.48h-19.24l1.06,62.7ZM83.38,2.48l-14.43,77.88h21.04l10.87-72.09,10.61,72.09h20.89L117.99,2.48h-34.62ZM201.01,2.48l-9.83,60.88-9.82-60.88h-31.77l-1.68,77.88h19.46l.53-72.09,13.39,72.09h19.75l13.4-72.09.53,72.09h19.51l-1.74-77.88h-31.73ZM381.98,2.48h-19.7v57.61c.03,1,0,2.13-.17,2.96-.41,1.93-2.05,5.66-7.48,5.66s-7.05-3.72-7.43-5.66c-.2-.83-.22-1.96-.2-2.96V2.48h-19.69v55.82c-.02,1.44.09,4.38.17,5.15,1.36,14.55,12.82,19.27,27.14,19.27s25.8-4.72,27.19-19.27c.11-.77.25-3.71.17-5.15V2.48ZM517.21,36.65v11.36h7.98v11.27c.02,1.01-.03,2.09-.2,2.96-.32,2.1-2.31,5.68-7.98,5.68s-7.59-3.58-7.93-5.68c-.14-.87-.2-1.96-.2-2.96V23.68c0-1.26.09-2.64.35-3.68.39-1.9,2.07-5.64,7.74-5.64,5.96,0,7.44,3.94,7.78,5.64.22,1.12.24,3,.24,3v4.32h19.61v-2.55s.09-2.67-.15-5.15c-1.47-14.61-13.51-19.23-27.31-19.23s-25.62,4.66-27.34,19.23c-.16,1.33-.39,3.73-.39,5.15v32.74c0,1.43.05,2.53.31,5.14,1.28,14.21,13.59,19.24,27.36,19.24s26.08-5.04,27.39-19.24c.23-2.61.26-3.71.29-5.14v-20.87h-27.55Z"/>
</svg>